:SAMPLES-PER-SECOND 30
:FULLY-SPECIFIED
:DEGREES
488
root  -41.3847 36.9965 -28.8903 44.6626 -88.3425 -2.75134
RightUpLeg  -76.3627 -14.2202 21.2373
RightLeg  40.0153 -1.93412 -2.02897
RightFoot  -5.74574 0.491712 -10.8102
RightToes  0.00048216 0.542163 -0.142577
Spine  73.7545 -3.85586 4.89253
Spine1  8.68839 1.11768 -6.02183
HEad  -32.2123 -0.241264 -6.15092
LeftShoulder1  2.55843 -22.9032 -1.38454
LeftArm  -107.664 -59.7811 29.429
LeftForeArm  1.93064 -20.9901 -3.05476
LeftHand  -0.25398 0.0180481 5.50724
RightShoulder  0.885616 9.19602 -1.62547
RightArm  -92.2268 48.0931 -19.0601
RightForeArm  -14.984 24.2508 5.91398
RightHand  -1.11274 7.88619 -10.1513
LeftUpLeg  -79.4729 19.7198 -30.4415
LeftLeg  37.0131 -2.54329 -1.68676
LeftFoot  -5.03644 -0.547239 10.4578
LeftToes  1.06243e-005 4.65856e-005 -8.18505e-006
489
root  -41.5038 37.0341 -28.8394 39.7001 -88.0038 2.13755
RightUpLeg  -75.9599 -14.2132 20.4643
RightLeg  39.992 -2.37634 -2.4237
RightFoot  -6.01094 0.445498 -10.4016
RightToes  0.00048216 0.542163 -0.142577
Spine  73.6764 -4.09638 4.64958
Spine1  8.89766 0.78311 -6.19153
HEad  -33.0111 -0.0353061 -5.78681
LeftShoulder1  2.75471 -23.3576 -2.01955
LeftArm  -108.33 -59.5019 28.291
LeftForeArm  5.62357 -22.685 -4.3176
LeftHand  -0.25398 0.0180481 5.50724
RightShoulder  0.936812 9.66975 -1.46833
RightArm  -89.993 48.0877 -18.7205
RightForeArm  -16.992 23.5994 5.84893
RightHand  -1.40777 8.65201 -12.0594
LeftUpLeg  -79.1233 19.7451 -30.7113
LeftLeg  36.8941 -2.70599 -1.80927
LeftFoot  -5.07362 -0.544973 10.4816
LeftToes  1.06243e-005 4.65856e-005 -8.18505e-006
490
root  -41.6033 37.0646 -28.7843 40.5224 -87.7155 1.20426
RightUpLeg  -75.5559 -14.1459 19.9214
RightLeg  40.0201 -2.75791 -2.76807
RightFoot  -6.21061 0.406375 -9.96972
RightToes  0.00048216 0.542163 -0.142577
Spine  73.5698 -4.30063 4.47106
Spine1  9.15179 0.510279 -6.36869
HEad  -33.6627 0.0975198 -5.33451
LeftShoulder1  2.97658 -23.7221 -2.7803
LeftArm  -107.76 -59.2677 28.0804
LeftForeArm  7.79836 -24.0032 -4.75515
LeftHand  -0.25398 0.0180481 5.50724
RightShoulder  0.976442 10.0391 -1.35603
RightArm  -87.8557 48.2523 -18.2384
RightForeArm  -18.5638 23.4443 5.87022
RightHand  -1.63872 9.01667 -13.6124
LeftUpLeg  -78.9023 19.865 -30.8819
LeftLeg  36.8859 -2.866 -1.93733
LeftFoot  -5.10438 -0.555145 10.7226
LeftToes  1.06243e-005 4.65856e-005 -8.18505e-006
491
root  -41.6904 37.0764 -28.7302 45.5041 -87.5129 -3.83584
RightUpLeg  -75.2176 -13.9432 19.6429
RightLeg  40.0612 -3.11459 -3.09232
RightFoot  -6.39486 0.371845 -9.57558
RightToes  0.00048216 0.542163 -0.142577
Spine  73.4821 -4.38107 4.42746
Spine1  9.21572 0.400628 -6.51138
HEad  -34.1936 0.0363667 -4.85424
LeftShoulder1  3.08257 -23.8404 -3.16148
LeftArm  -107.253 -59.3249 27.9451
LeftForeArm  9.79078 -24.624 -4.75728
LeftHand  -0.25398 0.0180481 5.50724
RightShoulder  1.00655 10.2927 -1.25868
RightArm  -85.9406 48.509 -17.8782
RightForeArm  -19.4106 23.1373 5.81127
RightHand  -1.76094 9.11648 -14.4828
LeftUpLeg  -78.8879 20.0371 -30.8969
LeftLeg  37.0288 -2.86697 -1.94932
LeftFoot  -5.37345 -0.529433 10.7432
LeftToes  1.06243e-005 4.65856e-005 -8.18505e-006
492
root  -41.7596 37.0748 -28.6852 48.5505 -87.4013 -6.97717
RightUpLeg  -74.9343 -13.8125 19.4161
RightLeg  40.1354 -3.34499 -3.30756
RightFoot  -6.61865 0.338578 -9.26404
RightToes  0.00048216 0.542163 -0.142577
Spine  73.5602 -4.37526 4.44441
Spine1  8.90023 0.375231 -6.57754
HEad  -34.6692 -0.239993 -4.34174
LeftShoulder1  3.07971 -23.8368 -3.15121
LeftArm  -106.617 -59.6001 27.3385
LeftForeArm  11.4321 -24.7938 -4.7075
LeftHand  -0.25398 0.0180481 5.50724
RightShoulder  1.05036 10.5578 -1.06117
RightArm  -84.0723 48.6136 -17.6253
RightForeArm  -20.2146 22.6579 5.68487
RightHand  -1.85413 9.38852 -14.9493
LeftUpLeg  -78.8361 20.1672 -30.8235
LeftLeg  37.2172 -2.71456 -1.84035
LeftFoot  -5.72437 -0.483182 10.5229
LeftToes  1.06243e-005 4.65856e-005 -8.18505e-006
